<?xml version="1.0" standalone="no"?>
<!DOCTYPE svg PUBLIC "-//W3C//DTD SVG 20010904//EN"
 "http://www.w3.org/TR/2001/REC-SVG-20010904/DTD/svg10.dtd">
<svg version="1.0" xmlns="http://www.w3.org/2000/svg"
 width="256.000000pt" height="256.000000pt" viewBox="0 0 256.000000 256.000000"
 preserveAspectRatio="xMidYMid meet">
<metadata>
Created by potrace 1.16, written by Peter Selinger 2001-2019
</metadata>
<g transform="translate(0.000000,256.000000) scale(0.100000,-0.100000)"
fill="#aaa" stroke="none">
<path d="M1162 2240 c-401 -56 -716 -337 -819 -730 -35 -130 -36 -314 -5 -443
28 -114 72 -217 127 -302 48 -73 52 -80 33 -69 -17 10 14 -29 76 -93 l49 -52
-41 -70 c-23 -38 -42 -73 -42 -78 0 -4 21 27 47 70 l46 78 -50 52 c-47 50 -98
112 -62 77 9 -8 39 -41 69 -72 l53 -58 -43 -72 c-33 -56 -44 -85 -49 -134 -4
-34 -4 -61 0 -58 8 5 24 -15 24 -31 0 -5 11 -11 25 -12 l25 -2 -25 8 c-21 8
-22 9 -5 10 11 1 48 17 82 35 35 19 60 30 57 25 -3 -5 -28 -21 -55 -34 -27
-14 -49 -28 -49 -30 0 -9 98 44 106 57 5 7 9 19 9 28 1 8 13 34 28 57 l27 42
77 -36 c136 -62 248 -85 403 -85 155 0 267 23 403 85 l77 36 24 -37 c12 -20
28 -47 35 -60 12 -23 116 -81 148 -83 13 -1 11 -4 -7 -10 l-25 -8 25 2 c14 1
25 7 25 12 0 16 16 36 24 31 4 -3 4 24 0 58 -5 49 -16 78 -49 134 l-43 72 53
58 c30 31 60 64 69 72 36 35 -15 -27 -62 -77 l-50 -52 46 -78 c26 -43 47 -74
47 -70 0 5 -19 40 -42 78 l-41 70 49 52 c62 64 93 103 77 93 -20 -11 -16 -4
32 69 171 261 198 619 67 907 -97 214 -276 393 -490 490 -144 65 -362 99 -510
78z m282 -185 c90 -19 212 -68 208 -84 -1 -7 2 -9 8 -6 16 10 115 -59 181
-124 65 -66 134 -165 124 -181 -3 -6 -1 -9 6 -8 17 4 74 -147 90 -237 17 -98
7 -272 -21 -360 -31 -100 -91 -210 -156 -288 l-56 -68 -39 63 c-21 35 -38 66
-39 69 0 10 61 84 70 84 5 0 12 4 17 9 5 5 2 6 -6 1 -16 -9 -16 -9 26 71 34
65 57 146 68 234 3 30 9 62 11 72 3 9 -6 28 -19 43 -19 22 -33 28 -73 30 -41
1 -53 -2 -76 -26 -16 -15 -28 -33 -28 -41 1 -7 7 -1 16 14 14 27 51 54 61 45
2 -3 -5 -8 -16 -12 -29 -9 -51 -56 -51 -109 0 -55 -29 -151 -64 -211 -15 -25
-28 -45 -30 -45 -2 0 -30 44 -61 97 l-58 96 25 21 c14 12 30 30 36 41 7 11 12
14 12 7 0 -8 -14 -27 -31 -43 l-30 -28 55 -93 c31 -51 56 -89 56 -84 0 4 -23
46 -51 92 l-50 84 26 22 26 23 0 214 c0 203 -1 215 -20 235 -18 17 -31 20 -82
18 l-60 -3 2 101 c4 142 3 142 -171 142 -174 0 -175 0 -171 -142 l2 -101 -60
3 c-51 2 -64 -1 -82 -18 -19 -20 -20 -32 -20 -235 l0 -214 26 -22 26 -23 -127
-213 c-139 -232 -142 -237 -127 -222 6 6 67 106 137 223 l128 213 -31 28 c-17
16 -31 35 -31 43 0 7 5 4 12 -7 6 -11 22 -29 36 -41 l25 -21 -145 -242 -146
-242 -56 68 c-65 78 -125 188 -156 288 -31 98 -38 273 -16 382 19 95 68 219
85 215 7 -1 9 2 6 8 -10 16 59 115 124 181 66 65 165 134 181 124 6 -3 9 -1 8
6 -4 15 121 65 207 84 82 18 241 18 329 0z m-86 -485 c130 -79 74 -280 -78
-280 -152 0 -208 201 -78 280 43 26 113 26 156 0z m-103 -539 c-2 -2 -19 6
-37 17 l-32 21 -58 -97 c-60 -101 -65 -112 -47 -112 5 0 8 4 5 8 -4 7 82 163
100 181 3 3 17 -2 32 -10 33 -18 99 -18 129 1 12 8 24 12 27 10 2 -3 27 -43
55 -90 47 -77 50 -86 34 -97 -19 -15 -6 -17 16 -4 11 7 3 29 -45 109 l-59 100
-33 -20 c-18 -11 -35 -19 -37 -16 -2 2 14 13 35 25 l38 22 65 -109 66 -109
-57 -23 c-48 -19 -76 -22 -172 -22 -96 0 -124 3 -172 22 l-57 23 66 109 65
109 38 -22 c21 -12 37 -23 35 -26z m-115 -382 c121 -30 301 -9 410 46 l47 24
11 -22 c6 -12 22 -41 37 -64 l26 -42 -48 -25 c-109 -55 -187 -71 -343 -71
-156 0 -234 16 -343 71 l-48 25 26 42 c15 23 31 52 37 63 l10 22 62 -28 c33
-15 86 -33 116 -41z"/>
</g>
</svg>
