<?xml version="1.0" standalone="no"?>
<!DOCTYPE svg PUBLIC "-//W3C//DTD SVG 20010904//EN"
 "http://www.w3.org/TR/2001/REC-SVG-20010904/DTD/svg10.dtd">
<svg version="1.0" xmlns="http://www.w3.org/2000/svg"
 width="2048.000000pt" height="2048.000000pt" viewBox="0 0 2048.000000 2048.000000"
 preserveAspectRatio="xMidYMid meet">

<g transform="translate(0.000000,2048.000000) scale(0.100000,-0.100000)"
fill="#aaa" stroke="none">
<path d="M2956 20471 c-8 -14 -2940 -8058 -2943 -8076 -4 -18 84 -50 974 -349
538 -181 989 -334 1003 -339 14 -6 471 -162 1015 -346 l990 -336 3 -1230 2
-1229 -301 -991 c-166 -544 -337 -1111 -382 -1260 -44 -148 -144 -484 -223
-745 -79 -261 -434 -1496 -789 -2745 -355 -1249 -650 -2282 -655 -2297 l-8
-27 36 14 c20 7 771 279 1667 605 3668 1332 4546 1650 4562 1650 9 0 208 -123
442 -273 234 -151 1201 -772 2149 -1380 948 -609 1729 -1107 1735 -1107 7 0
1779 709 3940 1577 l3927 1577 0 62 c0 65 366 11531 373 11691 l4 93 -461 372
c-254 205 -681 551 -951 768 -269 218 -816 659 -1215 981 -399 322 -1404 1133
-2233 1803 -830 669 -1512 1216 -1516 1214 -5 -2 -565 -673 -1245 -1493 -681
-819 -1241 -1491 -1246 -1493 -4 -2 -448 500 -986 1115 -1274 1457 -1235 1413
-1247 1413 -11 0 -6362 778 -6395 784 -12 2 -24 1 -26 -3z m5644 -6061 l0
-480 -365 0 -365 0 0 -1655 0 -1655 365 0 365 0 0 -485 0 -485 -1315 0 -1315
0 0 485 0 485 380 0 380 0 0 1655 0 1655 -380 0 -380 0 0 480 0 480 1315 0
1315 0 0 -480z m4360 -1322 c0 -1133 -4 -1848 -10 -1923 -41 -476 -194 -814
-507 -1116 -187 -180 -325 -260 -608 -352 -296 -97 -469 -127 -733 -127 -350
0 -676 68 -941 197 -103 51 -313 187 -400 261 -114 96 -223 197 -280 262 l-60
67 361 404 c198 222 362 406 363 408 2 2 50 -44 107 -101 288 -292 596 -434
897 -415 291 19 495 163 575 405 64 191 60 50 63 2030 l4 1802 584 0 585 0 0
-1802z m-3040 -7223 l0 -395 -2370 0 -2370 0 0 395 0 395 2370 0 2370 0 0
-395z"/>
</g>
</svg>
