<?xml version="1.0" standalone="no"?>
<!DOCTYPE svg PUBLIC "-//W3C//DTD SVG 20010904//EN"
 "http://www.w3.org/TR/2001/REC-SVG-20010904/DTD/svg10.dtd">
<svg version="1.0" xmlns="http://www.w3.org/2000/svg"
 width="400.000000pt" height="400.000000pt" viewBox="0 0 400.000000 400.000000"
 preserveAspectRatio="xMidYMid meet">

<g transform="translate(0.000000,400.000000) scale(0.100000,-0.100000)"
fill="#aaa" stroke="none">
<path d="M2220 3721 c0 -6 4 -13 10 -16 6 -3 7 1 4 9 -7 18 -14 21 -14 7z"/>
<path d="M2230 3590 c-6 -11 -8 -20 -6 -20 3 0 10 9 16 20 6 11 8 20 6 20 -3
0 -10 -9 -16 -20z"/>
<path d="M2226 3548 c3 -5 10 -6 15 -3 13 9 11 12 -6 12 -8 0 -12 -4 -9 -9z"/>
<path d="M2197 3533 c-10 -9 -9 -23 1 -23 5 0 9 7 9 15 0 17 -1 18 -10 8z"/>
<path d="M2157 3470 c3 -11 9 -22 13 -25 5 -3 6 4 3 15 -3 11 -9 22 -13 25 -5
3 -6 -4 -3 -15z"/>
<path d="M2097 3405 c3 -8 9 -12 14 -9 12 7 11 11 -5 17 -10 4 -13 1 -9 -8z"/>
<path d="M2076 3373 c-8 -20 9 -40 19 -22 6 8 4 10 -5 4 -9 -5 -10 -2 -5 14 8
25 0 29 -9 4z"/>
<path d="M2123 3365 c0 -8 4 -12 9 -9 5 3 6 10 3 15 -9 13 -12 11 -12 -6z"/>
<path d="M1997 3293 c-14 -17 -14 -18 8 -18 16 0 20 4 14 11 -5 6 -6 14 -2 17
3 4 4 7 1 7 -3 0 -12 -8 -21 -17z"/>
<path d="M1905 3270 c-3 -5 -3 -10 2 -10 4 0 1 -5 -7 -11 -12 -8 -12 -10 -1
-7 8 2 15 12 17 21 3 19 -2 22 -11 7z"/>
<path d="M2313 3270 c-13 -5 -23 -11 -23 -14 0 -7 40 6 46 15 6 10 6 10 -23
-1z"/>
<path d="M1920 3235 c0 -5 5 -17 10 -25 5 -8 10 -10 10 -5 0 6 -5 17 -10 25
-5 8 -10 11 -10 5z"/>
<path d="M2204 3219 c-8 -14 14 -19 25 -6 8 10 7 14 -5 14 -8 0 -17 -4 -20 -8z"/>
<path d="M2239 3203 c-13 -16 -12 -17 4 -4 9 7 17 15 17 17 0 8 -8 3 -21 -13z"/>
<path d="M1873 3195 c0 -8 4 -12 9 -9 5 3 6 10 3 15 -9 13 -12 11 -12 -6z"/>
<path d="M1825 3190 c-4 -6 -10 -8 -15 -5 -4 3 -7 -3 -6 -12 3 -17 21 -21 21
-5 0 4 4 13 8 20 5 6 6 12 3 12 -3 0 -8 -5 -11 -10z"/>
<path d="M2187 3173 c3 -7 6 -13 8 -13 2 0 5 6 8 13 3 8 -1 14 -8 14 -7 0 -11
-6 -8 -14z"/>
<path d="M1867 3149 c7 -7 15 -10 18 -7 3 3 -2 9 -12 12 -14 6 -15 5 -6 -5z"/>
<path d="M2115 3139 c-3 -4 2 -6 10 -5 21 3 28 13 10 13 -9 0 -18 -4 -20 -8z"/>
<path d="M1768 3108 c-10 -10 -14 -18 -9 -18 10 0 36 29 30 34 -2 1 -12 -6
-21 -16z"/>
<path d="M2085 3121 c-3 -5 -2 -12 3 -15 5 -3 9 1 9 9 0 17 -3 19 -12 6z"/>
<path d="M1826 3112 c-3 -5 1 -9 9 -9 8 0 12 4 9 9 -3 4 -7 8 -9 8 -2 0 -6 -4
-9 -8z"/>
<path d="M2110 3112 c0 -12 19 -26 26 -19 2 2 -2 10 -11 17 -9 8 -15 8 -15 2z"/>
<path d="M1785 3060 c-4 -6 -11 -8 -16 -5 -5 3 -6 -1 -3 -10 4 -9 7 -15 8 -13
1 2 8 11 15 21 7 9 11 17 8 17 -3 0 -9 -5 -12 -10z"/>
<path d="M2030 3063 c0 -5 9 -18 20 -28 12 -10 18 -25 16 -32 -3 -7 -1 -13 4
-13 18 0 10 29 -15 56 -14 15 -25 22 -25 17z"/>
<path d="M1725 3050 c-3 -5 -3 -15 1 -22 5 -7 2 -9 -8 -5 -11 4 -15 1 -13 -11
2 -9 4 -24 5 -32 2 -18 21 26 25 58 2 24 0 28 -10 12z"/>
<path d="M2070 3050 c8 -5 20 -10 25 -10 6 0 3 5 -5 10 -8 5 -19 10 -25 10 -5
0 -3 -5 5 -10z"/>
<path d="M2031 3007 c-8 -10 -7 -14 2 -14 8 0 14 6 14 14 0 7 -1 13 -2 13 -2
0 -8 -6 -14 -13z"/>
<path d="M1750 3005 c0 -5 5 -17 10 -25 8 -13 11 -13 22 -1 8 9 9 12 1 7 -6
-3 -16 2 -22 11 -6 10 -10 14 -11 8z"/>
<path d="M2066 2957 c1 -12 3 -29 3 -37 1 -13 3 -13 10 -1 5 8 7 21 3 29 -3
10 -1 13 6 8 7 -4 12 -5 12 -2 0 3 -8 10 -18 15 -16 8 -18 6 -16 -12z"/>
<path d="M1743 2959 c9 -5 17 -19 17 -29 0 -10 4 -22 10 -25 6 -3 7 1 4 10 -4
8 -1 22 6 30 11 13 10 14 -3 10 -8 -4 -18 -2 -22 4 -3 6 -12 11 -18 11 -7 0
-4 -5 6 -11z"/>
<path d="M1710 2943 c5 -2 10 -11 10 -18 0 -8 4 -17 10 -20 6 -4 7 2 1 16 -4
13 -13 24 -20 25 -6 1 -7 0 -1 -3z"/>
<path d="M2022 2897 c0 -7 -2 -21 -5 -32 -2 -11 -2 -14 0 -7 3 6 9 12 14 12
11 0 12 27 1 34 -5 3 -9 0 -10 -7z"/>
<path d="M1720 2879 c0 -5 5 -7 10 -4 6 3 10 8 10 11 0 2 -4 4 -10 4 -5 0 -10
-5 -10 -11z"/>
<path d="M1770 2859 c0 -6 -7 -9 -15 -5 -22 8 -18 -2 6 -15 17 -9 20 -8 14 2
-6 9 -3 10 10 5 15 -5 16 -4 5 9 -15 18 -20 19 -20 4z"/>
<path d="M2143 2843 c4 -3 1 -13 -6 -22 -11 -14 -10 -14 5 -2 16 12 16 31 1
31 -4 0 -3 -3 0 -7z"/>
<path d="M1780 2801 c0 -5 7 -11 14 -14 10 -4 13 -1 9 9 -6 15 -23 19 -23 5z"/>
<path d="M2042 2801 c-11 -7 -11 -9 0 -14 9 -3 15 1 15 9 0 8 -1 14 -1 14 -1
0 -7 -4 -14 -9z"/>
<path d="M2160 2806 c0 -2 8 -10 18 -17 15 -13 16 -12 3 4 -13 16 -21 21 -21
13z"/>
<path d="M1815 2770 c-3 -5 -5 -10 -3 -11 33 -8 38 -7 27 7 -14 17 -16 17 -24
4z"/>
<path d="M2196 2772 c-3 -5 1 -9 9 -9 8 0 12 4 9 9 -3 4 -7 8 -9 8 -2 0 -6 -4
-9 -8z"/>
<path d="M2123 2735 c0 -8 4 -12 9 -9 4 3 8 9 8 15 0 5 -4 9 -8 9 -5 0 -9 -7
-9 -15z"/>
<path d="M1835 2721 c-3 -5 -2 -12 3 -15 5 -3 9 1 9 9 0 17 -3 19 -12 6z"/>
<path d="M2165 2662 c3 -3 -1 -12 -7 -21 -10 -13 -10 -14 2 -4 11 10 17 10 31
-3 13 -12 19 -12 25 -3 4 7 3 10 -3 6 -11 -7 -37 16 -28 25 3 2 -2 5 -10 5 -8
0 -13 -3 -10 -5z"/>
<path d="M2131 2578 c-14 -23 -14 -23 8 -4 22 20 25 26 13 26 -4 0 -13 -10
-21 -22z"/>
<path d="M2600 2565 c0 -2 13 -11 28 -19 16 -8 43 -28 60 -44 62 -58 37 -148
-69 -253 -34 -32 -55 -59 -47 -59 25 0 113 52 157 94 51 48 71 90 71 147 0 35
-6 48 -38 79 -21 21 -55 43 -77 49 -41 11 -85 15 -85 6z"/>
<path d="M1448 2500 c-78 -22 -91 -28 -82 -41 3 -5 2 -8 -3 -7 -8 3 -13 -5
-13 -22 0 -14 94 -38 195 -50 242 -27 718 6 805 56 23 14 20 15 -45 10 -402
-30 -745 -34 -792 -8 -31 17 -29 44 5 64 34 22 16 21 -70 -2z"/>
<path d="M1542 2260 c-38 -23 -41 -53 -9 -75 13 -8 59 -24 103 -35 104 -28
374 -30 509 -6 192 35 216 46 160 76 -20 11 -43 11 -132 -1 -156 -20 -496 -18
-545 4 -21 9 -38 23 -38 31 0 24 -15 26 -48 6z"/>
<path d="M1602 2014 c-54 -37 1 -92 121 -119 122 -29 275 -31 401 -6 122 25
181 45 171 61 -3 6 -20 17 -38 26 -28 15 -44 15 -158 4 -215 -22 -449 -1 -449
39 0 16 -22 13 -48 -5z"/>
<path d="M1271 1841 c-68 -24 -105 -52 -109 -83 -4 -32 23 -44 141 -63 408
-65 887 -58 1170 17 79 21 120 46 56 35 -164 -30 -334 -41 -634 -41 -266 0
-337 3 -420 18 -108 19 -185 47 -185 67 0 7 12 26 27 41 31 33 26 34 -46 9z"/>
<path d="M2697 1674 c-139 -59 -430 -104 -712 -111 -99 -2 -184 -6 -190 -8 -5
-3 123 -3 285 -1 255 3 310 7 405 26 119 23 242 69 270 100 22 25 15 24 -58
-6z"/>
<path d="M220 1371 c0 -6 4 -13 10 -16 6 -3 7 1 4 9 -7 18 -14 21 -14 7z"/>
<path d="M2655 1366 c-99 -24 -133 -62 -158 -176 -137 -619 -152 -700 -135
-711 7 -5 37 -9 66 -9 63 0 61 -5 98 183 40 200 4 176 276 179 266 3 262 2
200 83 l-38 50 -179 6 c-99 3 -181 6 -183 7 -1 1 0 12 2 25 3 12 10 51 17 87
15 82 33 118 65 130 14 6 124 10 244 10 247 0 244 -1 256 75 11 79 24 75 -243
74 -152 0 -256 -5 -288 -13z"/>
<path d="M215 985 c0 -198 1 -280 2 -183 2 97 2 259 0 360 -1 101 -2 21 -2
-177z"/>
<path d="M1106 1118 c5 -8 2 -9 -10 -5 -10 4 -15 3 -11 -3 8 -12 32 -13 39 -1
3 5 -1 12 -10 15 -10 4 -13 2 -8 -6z"/>
<path d="M1960 1119 c0 -5 -4 -8 -9 -5 -5 3 -11 0 -14 -8 -4 -10 0 -12 14 -9
16 5 29 33 14 33 -3 0 -5 -5 -5 -11z"/>
<path d="M2125 1110 c10 -11 20 -20 23 -20 3 0 -3 9 -13 20 -10 11 -20 20 -23
20 -3 0 3 -9 13 -20z"/>
<path d="M3003 1122 c-14 -9 -3 -30 109 -194 l77 -113 -22 -27 c-12 -15 -82
-90 -154 -166 -73 -77 -130 -142 -126 -146 3 -3 41 -6 83 -6 91 0 98 5 218
130 94 98 87 99 167 -20 62 -94 85 -110 152 -110 36 0 55 4 59 14 3 7 -13 40
-34 72 -62 94 -128 197 -140 221 -11 19 -6 28 41 80 29 32 65 74 81 93 15 19
55 63 88 97 33 34 57 67 53 72 -3 6 -39 11 -82 11 l-76 0 -97 -100 c-53 -55
-102 -100 -107 -100 -6 0 -39 41 -73 91 -35 49 -72 94 -81 100 -21 11 -119 12
-136 1z"/>
<path d="M660 1116 c0 -2 9 -6 20 -9 11 -3 18 -1 14 4 -5 9 -34 13 -34 5z"/>
<path d="M815 1111 c-3 -5 -1 -12 5 -16 6 -4 7 -12 4 -18 -4 -7 -1 -6 7 2 11
10 11 15 1 18 -6 3 -10 9 -6 14 3 5 3 9 0 9 -3 0 -7 -4 -11 -9z"/>
<path d="M1538 1113 c7 -3 16 -2 19 1 4 3 -2 6 -13 5 -11 0 -14 -3 -6 -6z"/>
<path d="M1800 1110 c-9 -6 -10 -10 -3 -10 6 0 15 5 18 10 8 12 4 12 -15 0z"/>
<path d="M2075 1110 c-3 -6 1 -7 9 -4 18 7 21 14 7 14 -6 0 -13 -4 -16 -10z"/>
<path d="M3800 1105 c0 -8 2 -15 4 -15 2 0 6 7 10 15 3 8 1 15 -4 15 -6 0 -10
-7 -10 -15z"/>
<path d="M567 1103 c-3 -5 6 -9 20 -10 19 -1 22 1 12 8 -17 11 -26 11 -32 2z"/>
<path d="M625 1100 c3 -5 8 -10 11 -10 2 0 4 5 4 10 0 6 -5 10 -11 10 -5 0 -7
-4 -4 -10z"/>
<path d="M496 1083 c-6 -14 -5 -15 5 -6 7 7 10 15 7 18 -3 3 -9 -2 -12 -12z"/>
<path d="M776 1088 c3 -5 10 -6 15 -3 13 9 11 12 -6 12 -8 0 -12 -4 -9 -9z"/>
<path d="M874 1078 c22 -33 22 -33 22 -8 0 10 -2 17 -5 15 -2 -3 -11 1 -19 8
-11 9 -11 4 2 -15z"/>
<path d="M1772 1081 c7 -11 16 -17 20 -15 5 3 2 12 -6 20 -21 20 -28 17 -14
-5z"/>
<path d="M1985 1088 c4 -11 0 -18 -12 -21 -15 -4 -16 -5 -1 -6 22 -1 33 18 19
32 -9 9 -11 8 -6 -5z"/>
<path d="M2010 1089 c0 -5 5 -7 10 -4 6 3 10 8 10 11 0 2 -4 4 -10 4 -5 0 -10
-5 -10 -11z"/>
<path d="M2046 1085 c-3 -9 0 -12 9 -9 8 3 15 -2 17 -13 3 -15 5 -16 10 -2 4
9 -1 20 -12 27 -14 9 -19 8 -24 -3z"/>
<path d="M536 1077 c3 -10 9 -15 12 -12 3 3 0 11 -7 18 -10 9 -11 8 -5 -6z"/>
<path d="M1081 1081 c-8 -5 -9 -11 -3 -15 5 -3 12 1 16 9 6 17 6 18 -13 6z"/>
<path d="M1587 1084 c-4 -4 -7 -14 -7 -23 0 -11 3 -12 11 -4 6 6 10 16 7 23
-2 6 -7 8 -11 4z"/>
<path d="M1844 1082 c3 -6 -2 -13 -11 -15 -10 -2 -3 -4 14 -3 39 1 39 2 12 17
-13 6 -19 7 -15 1z"/>
<path d="M2101 1063 c-10 -26 -10 -27 4 -9 8 11 15 23 15 28 0 15 -7 8 -19
-19z"/>
<path d="M2160 1081 c0 -5 5 -13 10 -16 6 -3 10 -2 10 4 0 5 -4 13 -10 16 -5
3 -10 2 -10 -4z"/>
<path d="M689 1068 c-11 -8 -11 -9 2 -5 9 3 22 0 28 -6 8 -8 11 -8 11 0 0 16
-25 23 -41 11z"/>
<path d="M769 1067 c6 -8 7 -18 3 -22 -4 -5 -1 -5 6 -1 10 6 10 11 1 22 -6 8
-14 14 -16 14 -3 0 0 -6 6 -13z"/>
<path d="M568 1053 c7 -3 16 -2 19 1 4 3 -2 6 -13 5 -11 0 -14 -3 -6 -6z"/>
<path d="M1790 1050 c-9 -6 -10 -10 -3 -10 6 0 15 5 18 10 8 12 4 12 -15 0z"/>
<path d="M2179 1043 c-13 -17 -13 -17 6 -3 11 8 22 16 24 17 2 2 0 3 -6 3 -6
0 -17 -8 -24 -17z"/>
<path d="M530 1046 c0 -2 7 -7 16 -10 8 -3 12 -2 9 4 -6 10 -25 14 -25 6z"/>
<path d="M2063 1034 c17 -21 47 -28 47 -11 0 5 -6 7 -12 4 -7 -2 -22 3 -33 12
-20 16 -20 16 -2 -5z"/>
<path d="M1586 1024 c-4 -9 -4 -19 -1 -22 3 -3 5 0 5 7 0 7 4 9 10 6 6 -3 7 1
4 9 -8 20 -10 20 -18 0z"/>
<path d="M885 1020 c-3 -6 1 -7 9 -4 18 7 21 14 7 14 -6 0 -13 -4 -16 -10z"/>
<path d="M2145 1020 c-4 -6 -11 -7 -17 -4 -6 4 -8 2 -4 -4 3 -5 0 -13 -6 -15
-8 -3 -8 -6 -2 -6 6 -1 19 8 29 19 10 11 15 20 12 20 -3 0 -9 -5 -12 -10z"/>
<path d="M852 1008 c-7 -7 -11 -21 -11 -32 1 -21 1 -21 6 -1 3 11 10 26 15 33
13 15 6 16 -10 0z"/>
<path d="M2168 973 c7 -3 16 -2 19 1 4 3 -2 6 -13 5 -11 0 -14 -3 -6 -6z"/>
<path d="M1236 957 c3 -10 9 -15 12 -12 3 3 0 11 -7 18 -10 9 -11 8 -5 -6z"/>
<path d="M1481 941 c-11 -7 -9 -13 8 -30 22 -22 41 -27 41 -12 0 5 8 11 18 13
14 3 13 5 -6 10 -12 3 -20 2 -16 -3 3 -5 -2 -9 -11 -9 -10 0 -13 5 -9 12 5 7
3 8 -6 3 -10 -6 -12 -4 -7 8 7 19 7 20 -12 8z"/>
<path d="M1168 870 c-3 -16 0 -35 5 -42 6 -10 7 -8 4 4 -3 9 -3 19 1 22 8 9
10 46 1 46 -3 0 -9 -13 -11 -30z"/>
<path d="M1540 885 c-7 -8 -10 -18 -6 -22 3 -3 6 -1 6 5 0 7 5 12 11 12 6 0 8
-7 4 -17 -5 -14 -3 -15 5 -6 8 7 9 17 3 28 -9 15 -11 15 -23 0z"/>
<path d="M851 874 c0 -11 3 -14 6 -6 3 7 2 16 -1 19 -3 4 -6 -2 -5 -13z"/>
<path d="M639 833 c-13 -16 -12 -17 4 -4 9 7 17 15 17 17 0 8 -8 3 -21 -13z"/>
<path d="M670 835 c0 -5 5 -17 10 -25 5 -8 10 -10 10 -5 0 6 -5 17 -10 25 -5
8 -10 11 -10 5z"/>
<path d="M580 816 c0 -2 7 -7 16 -10 8 -3 12 -2 9 4 -6 10 -25 14 -25 6z"/>
<path d="M1456 803 c-6 -14 -5 -15 5 -6 7 7 10 15 7 18 -3 3 -9 -2 -12 -12z"/>
<path d="M1840 812 c0 -6 8 -12 18 -16 9 -3 23 -9 31 -12 8 -4 11 -2 7 4 -3 6
2 13 11 15 10 2 7 3 -7 2 -14 -2 -33 1 -42 6 -11 6 -18 6 -18 1z"/>
<path d="M1500 800 c0 -5 5 -10 11 -10 5 0 7 5 4 10 -3 6 -8 10 -11 10 -2 0
-4 -4 -4 -10z"/>
<path d="M530 790 c0 -7 -7 -10 -14 -7 -10 4 -13 1 -9 -9 7 -18 11 -18 29 0 9
9 10 17 4 21 -5 3 -10 1 -10 -5z"/>
<path d="M560 796 c0 -2 9 -6 20 -9 11 -3 18 -1 14 4 -5 9 -34 13 -34 5z"/>
<path d="M1175 779 c-4 -6 -5 -12 -2 -15 2 -3 7 2 10 11 7 17 1 20 -8 4z"/>
<path d="M1786 777 c3 -10 9 -15 12 -12 3 3 0 11 -7 18 -10 9 -11 8 -5 -6z"/>
<path d="M540 755 c-7 -9 -11 -17 -9 -20 3 -2 10 5 17 15 14 24 10 26 -8 5z"/>
<path d="M595 759 c-4 -6 -5 -12 -2 -15 2 -3 7 2 10 11 7 17 1 20 -8 4z"/>
<path d="M1860 760 c-9 -6 -10 -10 -3 -10 6 0 15 5 18 10 8 12 4 12 -15 0z"/>
<path d="M495 748 c4 -11 0 -18 -12 -21 -15 -4 -16 -5 -1 -6 22 -1 33 18 19
32 -9 9 -11 8 -6 -5z"/>
<path d="M842 751 c-11 -6 -9 -9 6 -13 15 -4 19 -2 15 8 -6 16 -4 16 -21 5z"/>
<path d="M1744 748 c-4 -7 -3 -8 4 -4 7 4 12 2 12 -4 0 -6 5 -8 12 -4 8 5 9 2
4 -11 -7 -18 -6 -18 14 0 21 19 27 30 10 20 -5 -3 -18 -1 -29 5 -14 7 -22 7
-27 -2z"/>
<path d="M1516 738 c3 -5 10 -6 15 -3 13 9 11 12 -6 12 -8 0 -12 -4 -9 -9z"/>
<path d="M1281 714 c0 -11 3 -14 6 -6 3 7 2 16 -1 19 -3 4 -6 -2 -5 -13z"/>
<path d="M546 711 c-4 -5 -2 -12 3 -15 5 -4 12 -2 15 3 4 5 2 12 -3 15 -5 4
-12 2 -15 -3z"/>
<path d="M1723 693 c0 -9 4 -10 14 -2 7 6 13 12 13 14 0 1 -6 2 -13 2 -8 0
-14 -6 -14 -14z"/>
<path d="M1785 700 c-3 -6 1 -7 9 -4 18 7 21 14 7 14 -6 0 -13 -4 -16 -10z"/>
<path d="M2125 701 c-3 -5 -2 -12 3 -15 5 -3 9 1 9 9 0 17 -3 19 -12 6z"/>
<path d="M1401 684 c0 -11 3 -14 6 -6 3 7 2 16 -1 19 -3 4 -6 -2 -5 -13z"/>
<path d="M1250 681 c0 -6 4 -13 10 -16 6 -3 7 1 4 9 -7 18 -14 21 -14 7z"/>
<path d="M1301 664 c0 -11 3 -14 6 -6 3 7 2 16 -1 19 -3 4 -6 -2 -5 -13z"/>
<path d="M1445 660 c-3 -5 -1 -10 4 -10 6 0 11 5 11 10 0 6 -2 10 -4 10 -3 0
-8 -4 -11 -10z"/>
<path d="M941 644 c0 -11 3 -14 6 -6 3 7 2 16 -1 19 -3 4 -6 -2 -5 -13z"/>
<path d="M1280 645 c0 -5 5 -17 10 -25 5 -8 10 -10 10 -5 0 6 -5 17 -10 25 -5
8 -10 11 -10 5z"/>
<path d="M1399 633 c-13 -16 -12 -17 4 -4 9 7 17 15 17 17 0 8 -8 3 -21 -13z"/>
<path d="M1720 631 c0 -6 4 -13 10 -16 6 -3 7 1 4 9 -7 18 -14 21 -14 7z"/>
<path d="M853 605 c0 -8 4 -12 9 -9 5 3 6 10 3 15 -9 13 -12 11 -12 -6z"/>
<path d="M217 595 c3 -8 9 -12 14 -9 12 7 11 11 -5 17 -10 4 -13 1 -9 -8z"/>
<path d="M1401 594 c0 -11 3 -14 6 -6 3 7 2 16 -1 19 -3 4 -6 -2 -5 -13z"/>
<path d="M1440 602 c0 -5 7 -15 15 -22 8 -7 15 -9 15 -6 0 4 -7 14 -15 22 -8
9 -15 11 -15 6z"/>
<path d="M2120 600 c-9 -6 -10 -10 -3 -10 6 0 15 5 18 10 8 12 4 12 -15 0z"/>
<path d="M1236 591 c-3 -5 2 -15 12 -22 15 -12 16 -12 5 2 -7 9 -10 19 -6 22
3 4 4 7 0 7 -3 0 -8 -4 -11 -9z"/>
<path d="M1375 580 c-3 -5 -1 -10 4 -10 6 0 11 5 11 10 0 6 -2 10 -4 10 -3 0
-8 -4 -11 -10z"/>
<path d="M1410 561 c-6 -13 -16 -19 -23 -15 -7 4 -8 3 -4 -1 4 -5 15 -10 23
-11 9 -1 13 0 10 3 -3 4 -1 12 6 20 6 7 8 16 5 19 -3 3 -10 -4 -17 -15z"/>
<path d="M1837 569 c7 -7 15 -10 18 -7 3 3 -2 9 -12 12 -14 6 -15 5 -6 -5z"/>
<path d="M227 563 c-4 -3 -7 -13 -7 -22 1 -13 3 -13 11 2 11 19 8 33 -4 20z"/>
<path d="M1780 560 c0 -5 5 -10 10 -10 6 0 10 5 10 10 0 6 -4 10 -10 10 -5 0
-10 -4 -10 -10z"/>
<path d="M570 551 c0 -7 -5 -9 -12 -5 -7 5 -8 3 -3 -5 5 -9 10 -10 18 -2 6 6
8 14 4 18 -4 3 -7 1 -7 -6z"/>
<path d="M2045 550 c-2 -3 0 -12 6 -20 6 -11 9 -12 9 -2 0 7 4 11 8 8 5 -3 9
1 9 8 0 13 -25 18 -32 6z"/>
<path d="M2115 541 c2 -19 18 -17 21 2 1 8 -4 14 -11 14 -7 0 -12 -7 -10 -16z"/>
<path d="M726 532 c-15 -18 -15 -19 11 -31 26 -10 26 -10 9 4 -16 12 -17 17
-6 30 18 21 7 19 -14 -3z"/>
<path d="M1816 531 c-10 -11 -16 -25 -15 -30 2 -6 12 3 21 19 20 35 18 38 -6
11z"/>
<path d="M790 536 c0 -2 7 -7 16 -10 8 -3 12 -2 9 4 -6 10 -25 14 -25 6z"/>
<path d="M505 520 c-3 -6 1 -7 9 -4 18 7 21 14 7 14 -6 0 -13 -4 -16 -10z"/>
<path d="M1746 522 c-3 -5 1 -9 9 -9 8 0 12 4 9 9 -3 4 -7 8 -9 8 -2 0 -6 -4
-9 -8z"/>
<path d="M2023 519 c9 -6 15 -14 12 -19 -3 -5 -1 -11 4 -14 5 -4 8 0 7 6 -3
21 -16 38 -29 38 -7 0 -4 -5 6 -11z"/>
<path d="M1250 511 c0 -6 4 -13 10 -16 6 -3 7 1 4 9 -7 18 -14 21 -14 7z"/>
<path d="M1435 510 c-3 -6 1 -7 9 -4 18 7 21 14 7 14 -6 0 -13 -4 -16 -10z"/>
<path d="M520 501 c0 -10 19 -25 25 -20 1 2 -3 10 -11 17 -8 7 -14 8 -14 3z"/>
<path d="M2005 501 c-3 -5 -2 -12 3 -15 5 -3 9 1 9 9 0 17 -3 19 -12 6z"/>
<path d="M630 489 c0 -5 5 -7 10 -4 6 3 10 8 10 11 0 2 -4 4 -10 4 -5 0 -10
-5 -10 -11z"/>
<path d="M220 455 c0 -8 4 -15 10 -15 5 0 7 7 4 15 -4 8 -8 15 -10 15 -2 0 -4
-7 -4 -15z"/>
<path d="M260 455 c0 -7 30 -13 34 -7 3 4 -4 9 -15 9 -10 1 -19 0 -19 -2z"/>
<path d="M177 397 c-3 -8 1 -14 9 -14 16 0 19 13 5 21 -5 3 -11 0 -14 -7z"/>
<path d="M210 399 c0 -5 5 -7 10 -4 6 3 10 8 10 11 0 2 -4 4 -10 4 -5 0 -10
-5 -10 -11z"/>
<path d="M246 372 c-3 -5 1 -9 9 -9 8 0 12 4 9 9 -3 4 -7 8 -9 8 -2 0 -6 -4
-9 -8z"/>
<path d="M110 330 c-11 -7 -11 -10 -2 -10 8 0 10 -5 6 -12 -4 -7 -3 -9 1 -5 7
6 17 37 12 37 -1 0 -9 -5 -17 -10z"/>
<path d="M55 291 c-6 -11 13 -26 22 -17 4 3 1 6 -6 6 -7 0 -9 5 -6 10 3 6 4
10 1 10 -3 0 -7 -4 -11 -9z"/>
<path d="M149 284 c-18 -21 1 -35 28 -21 22 12 22 13 4 24 -15 10 -22 9 -32
-3z m27 -6 c4 -7 3 -8 -4 -4 -7 4 -12 2 -12 -5 0 -7 -3 -10 -6 -6 -6 5 3 27
11 27 2 0 7 -5 11 -12z"/>
<path d="M114 262 c3 -5 1 -12 -6 -14 -8 -3 -9 -6 -1 -11 6 -4 13 0 17 8 3 8
0 17 -6 21 -6 4 -8 3 -4 -4z"/>
</g>
</svg>
