<?xml version="1.0" standalone="no"?>
<!DOCTYPE svg PUBLIC "-//W3C//DTD SVG 20010904//EN"
 "http://www.w3.org/TR/2001/REC-SVG-20010904/DTD/svg10.dtd">
<svg version="1.0" xmlns="http://www.w3.org/2000/svg"
 width="2000.000000pt" height="2000.000000pt" viewBox="0 0 2000.000000 2000.000000"
 preserveAspectRatio="xMidYMid meet">

<g transform="translate(0.000000,2000.000000) scale(0.100000,-0.100000)"
fill="#aaa" stroke="none">
<path d="M0 14713 l1 -5288 20 25 c12 14 55 61 97 105 43 44 115 121 162 170
46 50 123 131 170 180 47 50 205 216 351 370 345 364 1864 1967 2219 2340 151
160 647 682 1101 1160 454 479 1462 1541 2240 2360 2810 2961 3597 3791 3629
3828 l32 37 -5011 0 -5011 0 0 -5287z"/>
<path d="M5015 5013 c-2755 -2755 -4042 -4039 -2860 -2855 l2150 2152 -2153
2153 -2152 2152 0 -4303 c0 -3433 3 -4304 12 -4307 7 -3 4505 -4 9995 -3
l9981 3 -4974 5008 c-2736 2754 -4978 5007 -4982 5007 -4 0 -2262 -2253 -5017
-5007z"/>
</g>
</svg>
