<?xml version="1.0" standalone="no"?>
<!DOCTYPE svg PUBLIC "-//W3C//DTD SVG 20010904//EN"
 "http://www.w3.org/TR/2001/REC-SVG-20010904/DTD/svg10.dtd">
<svg version="1.0" xmlns="http://www.w3.org/2000/svg"
 width="298.000000pt" height="212.000000pt" viewBox="0 0 298.000000 212.000000"
 preserveAspectRatio="xMidYMid meet">

<g transform="translate(0.000000,212.000000) scale(0.100000,-0.100000)"
fill="#aaa" stroke="none">
<path d="M1196 1888 c-11 -16 -19 -58 -23 -122 -6 -94 -7 -97 -32 -102 -250
-53 -411 -197 -467 -414 -51 -201 69 -443 273 -547 102 -52 166 -67 283 -67
92 1 115 4 185 31 45 16 101 43 125 58 65 41 151 134 184 198 27 55 31 58 121
97 11 5 47 21 80 36 33 14 107 46 165 71 58 25 113 52 122 61 16 14 18 41 18
289 0 167 -4 282 -10 293 -13 25 -57 36 -215 54 -71 9 -188 22 -260 31 -276
34 -383 46 -456 51 -74 6 -77 6 -93 -18z m324 -47 c128 -20 622 -81 649 -81
29 0 -2 -34 -141 -154 l-147 -127 -290 193 c-160 106 -291 196 -291 199 0 4
19 3 43 -2 23 -4 103 -17 177 -28z m-49 -148 c125 -83 264 -177 310 -208 65
-44 88 -55 108 -50 14 4 84 58 157 121 73 63 135 114 138 114 3 0 6 -101 6
-224 0 -167 -3 -226 -12 -233 -12 -9 -359 -161 -379 -166 -5 -1 -10 59 -11
133 -3 133 -4 136 -40 210 -49 100 -121 169 -231 220 -83 38 -202 70 -263 70
l-34 0 0 86 c0 63 3 85 13 82 6 -2 114 -71 238 -155z m-301 -132 c0 -38 -5
-229 -11 -426 -10 -333 -10 -358 7 -376 9 -10 27 -19 38 -19 12 0 82 27 156
61 74 33 160 72 190 85 30 14 73 34 94 44 22 11 42 17 44 15 8 -8 -48 -85 -94
-130 -50 -47 -130 -93 -214 -121 -40 -14 -83 -19 -160 -18 -125 0 -207 24
-300 86 -258 172 -293 501 -76 713 72 70 143 111 235 136 96 25 91 28 91 -50z
m195 32 c72 -15 87 -24 65 -38 -13 -8 -13 -61 0 -86 15 -26 134 -28 148 -2 9
15 13 13 38 -17 35 -40 51 -65 36 -56 -6 3 -17 3 -26 0 -12 -5 -16 -20 -16
-65 0 -66 15 -83 73 -77 26 2 33 -1 35 -18 3 -18 -1 -21 -22 -17 -14 3 -37 2
-51 -1 -23 -6 -25 -10 -25 -71 l0 -65 51 0 c43 0 50 -3 45 -16 -3 -9 -6 -22
-6 -29 0 -9 -15 -15 -42 -17 -42 -3 -43 -4 -46 -40 -2 -25 -8 -38 -17 -38 -9
0 -12 6 -9 15 4 8 3 26 0 40 -6 24 -10 25 -81 25 l-75 0 0 -64 c0 -36 5 -68
11 -72 17 -10 -70 -46 -131 -53 -44 -5 -57 -10 -65 -28 -12 -28 -25 -30 -25
-3 0 13 -9 22 -25 26 -33 8 -35 51 -3 56 28 4 43 52 34 102 -6 30 -11 36 -32
36 -22 0 -25 4 -22 28 2 19 9 28 25 30 41 6 44 132 3 132 -28 0 -27 46 0 53
17 4 20 14 20 61 0 41 -4 58 -15 62 -9 4 -15 19 -15 35 0 17 6 32 15 35 11 5
15 21 15 60 0 39 -4 56 -15 60 -8 4 -15 12 -15 20 0 19 70 18 165 -3z"/>
<path d="M1257 1578 c-14 -11 -18 -25 -15 -68 l3 -55 67 -3 c60 -3 68 -1 79
19 11 21 7 94 -5 107 -14 13 -111 13 -129 0z"/>
<path d="M1258 1389 c-14 -8 -18 -23 -18 -64 0 -63 13 -75 82 -75 63 0 73 10
73 75 0 39 -5 59 -15 65 -20 13 -100 12 -122 -1z"/>
<path d="M1430 1381 c-17 -32 -12 -96 8 -114 21 -19 102 -23 133 -7 15 9 19
22 19 63 0 29 -5 58 -12 65 -7 7 -39 12 -75 12 -51 0 -64 -3 -73 -19z"/>
<path d="M1267 1208 c-14 -11 -18 -25 -15 -68 l3 -55 65 -3 c52 -2 67 0 77 14
15 20 17 82 4 103 -13 20 -111 26 -134 9z"/>
<path d="M1453 1213 c-9 -3 -13 -27 -13 -69 l0 -64 74 0 c82 0 86 3 86 70 0
54 -20 70 -83 69 -29 0 -58 -3 -64 -6z"/>
<path d="M1257 1013 c-9 -8 -9 -96 -1 -117 5 -12 21 -16 70 -16 71 0 84 11 84
70 0 59 -14 70 -84 70 -34 0 -66 -3 -69 -7z"/>
<path d="M1550 678 c-19 -13 -35 -28 -37 -34 -2 -7 31 -54 74 -107 43 -52 112
-136 153 -188 151 -187 168 -201 210 -159 39 39 40 38 -244 385 -86 106 -104
125 -117 125 -3 0 -21 -10 -39 -22z"/>
</g>
</svg>
