<?xml version="1.0" standalone="no"?>
<!DOCTYPE svg PUBLIC "-//W3C//DTD SVG 20010904//EN"
 "http://www.w3.org/TR/2001/REC-SVG-20010904/DTD/svg10.dtd">
<svg version="1.0" xmlns="http://www.w3.org/2000/svg"
 width="781.000000pt" height="781.000000pt" viewBox="0 0 781.000000 781.000000"
 preserveAspectRatio="xMidYMid meet">

<g transform="translate(0.000000,781.000000) scale(0.100000,-0.100000)"
fill="#aaa" stroke="none">
<path d="M4420 4989 c-19 -12 -36 -23 -38 -24 -4 -3 35 -81 72 -145 l27 -45
-7 100 c-9 138 -11 140 -54 114z"/>
<path d="M3344 4934 c-6 -48 0 -433 8 -503 3 -21 -4 -26 -75 -46 -43 -13 -80
-25 -82 -27 -5 -4 54 -82 166 -220 41 -51 78 -101 82 -111 9 -24 -8 -64 -33
-77 -36 -19 -43 -11 -321 316 l-37 43 -118 -58 c-118 -57 -273 -149 -328 -194
l-28 -23 38 -45 c22 -25 64 -77 94 -115 30 -38 72 -86 92 -107 20 -21 37 -40
37 -43 1 -9 124 -154 131 -154 4 0 10 -9 13 -20 7 -26 78 -59 245 -112 129
-42 133 -44 127 -68 -10 -44 -18 -403 -10 -493 l7 -86 66 42 c155 97 277 193
403 317 l87 86 110 -108 c164 -158 425 -346 442 -318 16 26 23 282 11 433 -7
82 -11 151 -9 152 2 2 60 22 130 44 269 88 493 208 718 386 103 82 102 74 18
142 -238 191 -525 343 -786 415 l-83 23 7 100 c3 55 8 102 10 104 5 6 -31 62
-117 184 l-77 107 -49 -37 c-80 -61 -215 -178 -273 -237 l-54 -56 -34 33 c-37
35 -41 42 84 -146 35 -54 37 -62 19 -81 -29 -28 -52 -18 -101 44 -25 33 -51
57 -56 54 -4 -3 -7 -2 -6 3 4 13 -119 188 -264 377 -56 72 -137 136 -175 136
-19 0 -22 -7 -29 -56z m1496 -1204 c0 -5 -4 -10 -10 -10 -5 0 -10 5 -10 10 0
6 5 10 10 10 6 0 10 -4 10 -10z"/>
</g>
</svg>
